<?xml version="1.0" standalone="no"?>
<!DOCTYPE svg PUBLIC "-//W3C//DTD SVG 20010904//EN"
 "http://www.w3.org/TR/2001/REC-SVG-20010904/DTD/svg10.dtd">
<svg version="1.0" xmlns="http://www.w3.org/2000/svg"
 width="660.000000pt" height="440.000000pt" viewBox="0 0 660.000000 440.000000"
 preserveAspectRatio="xMidYMid meet">

<g transform="translate(0.000000,440.000000) scale(0.100000,-0.100000)"
fill="#000000" stroke="none">
<path d="M380 4111 c-100 -17 -152 -57 -169 -131 -11 -47 -6 -1530 5 -1685 22
-306 146 -559 350 -711 22 -16 41 -32 44 -36 3 -3 43 -26 90 -50 76 -38 94
-43 166 -46 64 -3 90 0 120 14 77 37 148 139 174 248 9 39 8 59 -2 95 -14 49
-73 117 -122 141 -45 23 -140 115 -176 170 -18 27 -43 82 -57 122 l-25 73 5
832 c5 800 5 833 -13 869 -36 69 -93 93 -240 99 -58 2 -125 0 -150 -4z"/>
<path d="M1975 3346 c-184 -36 -297 -91 -414 -201 -94 -90 -151 -203 -170
-342 -14 -99 -22 -661 -10 -757 19 -161 48 -245 117 -338 136 -185 350 -278
637 -278 160 0 316 44 435 124 85 57 141 110 184 176 94 145 105 204 112 600
4 261 -8 461 -34 563 -43 164 -199 327 -386 401 -140 56 -337 78 -471 52z
m250 -507 c60 -53 65 -88 65 -449 0 -251 -3 -327 -15 -366 -44 -149 -235 -167
-305 -28 -19 36 -20 61 -20 391 0 392 0 395 64 451 34 29 42 32 106 32 63 0
72 -3 105 -31z"/>
<path d="M3780 3345 c-197 -34 -355 -122 -472 -264 -10 -12 -18 -25 -18 -30 0
-5 -4 -11 -8 -13 -9 -4 -51 -90 -64 -133 -32 -109 -38 -186 -38 -520 0 -420
11 -498 93 -660 33 -67 122 -160 192 -201 177 -103 415 -124 586 -50 20 8 39
12 43 9 12 -13 6 -171 -9 -206 -45 -108 -151 -160 -279 -136 -65 13 -97 26
-190 83 -33 20 -73 36 -89 36 -42 0 -132 -46 -162 -83 -45 -55 -50 -61 -64
-92 -7 -17 -17 -38 -22 -47 -14 -27 -11 -116 5 -146 8 -15 29 -40 47 -56 38
-34 175 -106 239 -125 25 -7 56 -18 69 -25 35 -16 496 -15 512 1 7 7 21 13 31
13 10 0 26 4 36 9 9 4 42 21 72 36 154 77 260 184 317 320 57 136 56 113 55
963 -2 898 3 838 -87 1011 -28 53 -144 162 -220 206 -168 97 -377 134 -575
100z m259 -514 c25 -25 43 -54 48 -78 4 -21 8 -194 8 -385 l0 -346 -30 -44
c-36 -50 -84 -77 -140 -77 -87 0 -149 59 -160 152 -4 29 -5 201 -3 382 3 295
5 334 21 363 28 51 71 72 150 72 65 0 68 -1 106 -39z"/>
<path d="M5621 3344 c-152 -28 -256 -73 -374 -164 -92 -70 -163 -188 -197
-324 -18 -71 -20 -114 -20 -465 0 -348 2 -393 20 -463 35 -140 95 -237 204
-327 107 -88 199 -128 359 -156 207 -37 450 5 597 102 73 48 180 157 213 216
74 135 87 232 87 668 0 346 -2 371 -43 494 -71 214 -280 372 -555 419 -108 19
-188 19 -291 0z m265 -518 c56 -59 59 -84 58 -468 l-1 -307 -26 -53 c-44 -90
-141 -123 -224 -77 -102 56 -105 74 -101 487 4 363 8 387 72 437 27 21 42 25
105 25 l74 0 43 -44z"/>
</g>
</svg>
